<svg width="16" height="14" viewBox="0 0 16 14" fill="none" xmlns="http://www.w3.org/2000/svg">
<path d="M6.95952 8.27416C7.35004 8.66469 7.98321 8.66469 8.37373 8.27416L14.7377 1.9102C15.1282 1.51968 15.1282 0.886513 14.7377 0.495989C14.3472 0.105465 13.714 0.105465 13.3235 0.495989L7.66663 6.15284L2.00977 0.49599C1.61925 0.105466 0.986082 0.105466 0.595558 0.49599C0.205034 0.886514 0.205034 1.51968 0.595558 1.9102L6.95952 8.27416ZM6.66663 6.90039L6.66663 7.56706L8.66663 7.56706L8.66663 6.90039L6.66663 6.90039Z" fill="black"/>
<path d="M6.95952 12.9412C7.35004 13.3317 7.98321 13.3317 8.37373 12.9412L14.7377 6.57719C15.1282 6.18667 15.1282 5.55351 14.7377 5.16298C14.3472 4.77246 13.714 4.77246 13.3235 5.16298L7.66663 10.8198L2.00977 5.16298C1.61925 4.77246 0.986082 4.77246 0.595558 5.16298C0.205034 5.55351 0.205034 6.18667 0.595558 6.5772L6.95952 12.9412ZM6.66663 11.5674L6.66663 12.234L8.66663 12.234L8.66663 11.5674L6.66663 11.5674Z" fill="black" fill-opacity="0.64"/>
</svg>
