<svg width="800px" height="800px" viewBox="0 0 30 30" fill="#ffffff" xmlns="http://www.w3.org/2000/svg">
<path d="M2.90143 23.2113H5.80286V29.1317L13.203 23.2113H20.31C21.9101 23.2113 23.2114 21.91 23.2114 20.3099V8.70416C23.2114 7.10403 21.9101 5.80273 20.31 5.80273H2.90143C1.30129 5.80273 0 7.10403 0 8.70416V20.3099C0 21.91 1.30129 23.2113 2.90143 23.2113Z" fill="#FCFCFF"/>
<path d="M26.1127 0H8.70416C7.10403 0 5.80273 1.30129 5.80273 2.90143H23.2113C24.8115 2.90143 26.1127 4.20272 26.1127 5.80286V17.4086C27.7129 17.4086 29.0142 16.1073 29.0142 14.5071V2.90143C29.0142 1.30129 27.7129 0 26.1127 0Z" fill="#FCFCFF"/>
</svg>
