<svg width="92" height="93" viewBox="0 0 92 93" fill="none" xmlns="http://www.w3.org/2000/svg">
<path d="M46 0.0996094C36.9021 0.0996094 28.0084 2.79746 20.4438 7.85201C12.8791 12.9065 6.98319 20.0908 3.50156 28.4962C0.0199311 36.9016 -0.891022 46.1506 0.883898 55.0737C2.65882 63.9969 7.03989 72.1933 13.4731 78.6265C19.9063 85.0597 28.1027 89.4408 37.0259 91.2157C45.949 92.9906 55.198 92.0797 63.6034 88.598C72.0088 85.1164 79.1931 79.2205 84.2476 71.6558C89.3021 64.0912 92 55.1975 92 46.0996C92 40.0588 90.8102 34.0771 88.4985 28.4962C86.1867 22.9152 82.7984 17.8442 78.5269 13.5727C74.2554 9.3012 69.1844 5.91287 63.6034 3.60115C58.0225 1.28943 52.0408 0.0996094 46 0.0996094ZM36.8 66.7996V25.3996L64.4 46.0996L36.8 66.7996Z" fill="#E0E0ED"/>
</svg>
