<svg width="31" height="31" viewBox="0 0 31 31" fill="none" xmlns="http://www.w3.org/2000/svg">
<path d="M15.5016 2.58301C22.6355 2.58301 28.4183 8.3658 28.4183 15.4997C28.4183 22.6335 22.6355 28.4163 15.5016 28.4163C13.219 28.42 10.9765 27.8159 9.00456 26.6661L2.59015 28.4163L4.33648 21.9993C3.18572 20.0268 2.58117 17.7833 2.58498 15.4997C2.58498 8.3658 8.36777 2.58301 15.5016 2.58301ZM11.0996 9.42884L10.8413 9.43917C10.6741 9.44936 10.5106 9.4933 10.3608 9.56834C10.2207 9.64769 10.0928 9.74688 9.98106 9.86284C9.82606 10.0088 9.73823 10.1354 9.64394 10.2581C9.16618 10.8793 8.90894 11.6419 8.91285 12.4255C8.91544 13.0584 9.08077 13.6745 9.3391 14.2506C9.8674 15.4157 10.7367 16.6493 11.8837 17.7924C12.1601 18.0675 12.4314 18.3439 12.7233 18.601C14.1485 19.8558 15.8468 20.7607 17.6833 21.2437L18.4169 21.3561C18.6559 21.369 18.8949 21.3509 19.1351 21.3393C19.5113 21.3199 19.8786 21.218 20.2111 21.0409C20.3802 20.9538 20.5453 20.859 20.7058 20.7568C20.7058 20.7568 20.7613 20.7206 20.8672 20.6405C21.0416 20.5113 21.1488 20.4196 21.2935 20.2685C21.4007 20.1574 21.4937 20.027 21.5647 19.8784C21.6655 19.6679 21.7662 19.2662 21.8076 18.9316C21.8386 18.6759 21.8295 18.5364 21.8256 18.4498C21.8205 18.3116 21.7055 18.1683 21.5802 18.1075L20.8285 17.7704C20.8285 17.7704 19.7047 17.2809 19.0176 16.9683C18.9457 16.9369 18.8686 16.919 18.7902 16.9153C18.7019 16.9063 18.6126 16.9162 18.5283 16.9445C18.4441 16.9728 18.3669 17.0188 18.302 17.0794C18.2955 17.0768 18.209 17.1504 17.2751 18.2819C17.2215 18.3539 17.1477 18.4084 17.063 18.4383C16.9784 18.4682 16.8867 18.4722 16.7998 18.4498C16.7156 18.4273 16.6332 18.3988 16.5531 18.3646C16.3929 18.2974 16.3374 18.2716 16.2276 18.2251C15.4862 17.9016 14.7999 17.4645 14.1932 16.9295C14.0304 16.7875 13.8793 16.6325 13.7243 16.4826C13.2162 15.996 12.7733 15.4454 12.4068 14.8448L12.3306 14.7221C12.2759 14.6396 12.2316 14.5507 12.1989 14.4573C12.1498 14.2674 12.2776 14.115 12.2776 14.115C12.2776 14.115 12.5915 13.7714 12.7375 13.5854C12.8796 13.4046 12.9997 13.2289 13.0772 13.1036C13.2296 12.8582 13.2774 12.6063 13.1973 12.4113C12.8356 11.5278 12.4611 10.6482 12.0761 9.77501C11.9999 9.60192 11.7739 9.47792 11.5685 9.45338C11.4988 9.44563 11.429 9.43788 11.3593 9.43272C11.1858 9.4241 11.012 9.42582 10.8387 9.43788L11.0984 9.42755L11.0996 9.42884Z" fill="white"/>
</svg>
